<svg width="17" height="16" viewBox="0 0 17 16" fill="none" xmlns="http://www.w3.org/2000/svg">
<g clip-path="url(#clip0_2145_3187)">
<path d="M15.6089 11.3062L12.1089 9.80624C11.9594 9.74252 11.7932 9.72909 11.6354 9.76798C11.4776 9.80687 11.3367 9.89597 11.2339 10.0219L9.68387 11.9156C7.25129 10.7687 5.29362 8.81101 4.14668 6.37843L6.04043 4.82843C6.16658 4.72583 6.25587 4.58492 6.29477 4.42704C6.33368 4.26916 6.32009 4.1029 6.25605 3.95343L4.75605 0.453429C4.68578 0.292306 4.56148 0.160756 4.4046 0.0814596C4.24772 0.00216377 4.06809 -0.0199067 3.89668 0.0190538L0.64668 0.769054C0.48142 0.807216 0.333975 0.900266 0.228409 1.03302C0.122844 1.16577 0.0653916 1.33038 0.0654297 1.49999C0.0654297 9.51562 6.5623 16 14.5654 16C14.7351 16.0001 14.8998 15.9427 15.0326 15.8371C15.1654 15.7315 15.2585 15.5841 15.2967 15.4187L16.0467 12.1687C16.0854 11.9965 16.0629 11.8161 15.9829 11.6587C15.903 11.5013 15.7708 11.3767 15.6089 11.3062Z" fill="#374151"/>
</g>
<defs>
<clipPath id="clip0_2145_3187">
<rect width="16" height="16" fill="white" transform="translate(0.0654297)"/>
</clipPath>
</defs>
</svg>
