<svg width="17" height="16" viewBox="0 0 17 16" fill="none" xmlns="http://www.w3.org/2000/svg">
<path d="M9.49863 13.9094L8.80488 14.6031C8.51113 14.8969 8.03613 14.8969 7.74551 14.6031L1.67051 8.53125C1.37676 8.2375 1.37676 7.7625 1.67051 7.47187L7.74551 1.39687C8.03926 1.10312 8.51426 1.10312 8.80488 1.39687L9.49863 2.09062C9.79551 2.3875 9.78926 2.87187 9.48613 3.1625L5.72051 6.75H14.7018C15.1174 6.75 15.4518 7.08437 15.4518 7.5V8.5C15.4518 8.91562 15.1174 9.25 14.7018 9.25H5.72051L9.48613 12.8375C9.79238 13.1281 9.79863 13.6125 9.49863 13.9094Z" fill="#374151"/>
</svg>
