<svg width="28" height="28" viewBox="0 0 28 28" fill="none" xmlns="http://www.w3.org/2000/svg">
<path d="M23.3335 14V8.16669H25.6668V15.1667H23.3335M23.3335 19.8334H25.6668V17.5H23.3335M11.6668 15.1667C14.7818 15.1667 21.0002 16.73 21.0002 19.8334V23.3334H2.3335V19.8334C2.3335 16.73 8.55183 15.1667 11.6668 15.1667ZM11.6668 4.66669C12.9045 4.66669 14.0915 5.15835 14.9667 6.03352C15.8418 6.90869 16.3335 8.09568 16.3335 9.33335C16.3335 10.571 15.8418 11.758 14.9667 12.6332C14.0915 13.5084 12.9045 14 11.6668 14C10.4292 14 9.24217 13.5084 8.367 12.6332C7.49183 11.758 7.00016 10.571 7.00016 9.33335C7.00016 8.09568 7.49183 6.90869 8.367 6.03352C9.24217 5.15835 10.4292 4.66669 11.6668 4.66669M11.6668 17.3834C8.20183 17.3834 4.55016 19.0867 4.55016 19.8334V21.1167H18.7835V19.8334C18.7835 19.0867 15.1318 17.3834 11.6668 17.3834M11.6668 6.88335C11.017 6.88335 10.3939 7.14148 9.93442 7.60094C9.47495 8.06041 9.21683 8.68357 9.21683 9.33335C9.21683 9.98313 9.47495 10.6063 9.93442 11.0658C10.3939 11.5252 11.017 11.7834 11.6668 11.7834C12.3166 11.7834 12.9398 11.5252 13.3992 11.0658C13.8587 10.6063 14.1168 9.98313 14.1168 9.33335C14.1168 8.68357 13.8587 8.06041 13.3992 7.60094C12.9398 7.14148 12.3166 6.88335 11.6668 6.88335V6.88335Z" fill="black"/>
</svg>
